<svg xmlns="http://www.w3.org/2000/svg" width="700" height="700" viewBox="0 0 700 700">
  <defs>
    <linearGradient id="bg" x1="0" y1="0" x2="1" y2="1">
      <stop offset="0%" stop-color="#ffffff"/>
      <stop offset="100%" stop-color="#f7eadc"/>
    </linearGradient>
    <filter id="shadow" x="-20%" y="-20%" width="140%" height="140%">
      <feDropShadow dx="0" dy="16" stdDeviation="18" flood-color="#0f172a" flood-opacity="0.16"/>
    </filter>
  </defs>
  <rect width="700" height="700" fill="url(#bg)"/>
  <rect x="58" y="58" width="584" height="584" rx="42" fill="#ffffff" filter="url(#shadow)"/>
  <rect x="58" y="58" width="584" height="584" rx="42" fill="none" stroke="#ead7b7" stroke-width="4"/>
  <circle cx="350" cy="235" r="150" fill="#f8fafc"/>
  <g transform="translate(50, 15)">
    
        <rect x="178" y="135" width="244" height="175" rx="24" fill="#3f2414"/>
        <rect x="198" y="160" width="204" height="128" rx="14" fill="#ffffff" opacity="0.08"/>
        <path d="M238 136c0-54 124-54 124 0" fill="none" stroke="#b45309" stroke-width="18" stroke-linecap="round"/>
        <rect x="215" y="205" width="170" height="18" rx="9" fill="#b45309" opacity="0.85"/>
        <circle cx="250" cy="246" r="8" fill="#b45309"/>
        <circle cx="350" cy="246" r="8" fill="#b45309"/>
        
  </g>
  <text x="350" y="82" text-anchor="middle" font-family="Arial, Helvetica, sans-serif" font-size="16" font-weight="800" fill="#b45309" letter-spacing="2">S.M. TRADE INTERNATIONAL</text>
  <line x1="150" y1="385" x2="550" y2="385" stroke="#ead7b7" stroke-width="4"/>
  <text x="300" y="420" text-anchor="middle" font-family="Arial, Helvetica, sans-serif" font-size="28" font-weight="800" fill="#111827">Bag – Classic Brown</text><text x="300" y="454" text-anchor="middle" font-family="Arial, Helvetica, sans-serif" font-size="28" font-weight="800" fill="#111827">Leather Office Bag with</text><text x="300" y="488" text-anchor="middle" font-family="Arial, Helvetica, sans-serif" font-size="28" font-weight="800" fill="#111827">Zip Pocket</text>
  <text x="350" y="610" text-anchor="middle" font-family="Arial, Helvetica, sans-serif" font-size="17" fill="#475569">Premium customized corporate product</text>
  <text x="300" y="542" text-anchor="middle" font-family="Arial, Helvetica, sans-serif" font-size="14" font-weight="700" fill="#b45309">PRD-JZWWO-4RS</text>
</svg>