<svg xmlns="http://www.w3.org/2000/svg" width="700" height="700" viewBox="0 0 700 700">
  <defs>
    <linearGradient id="bg" x1="0" y1="0" x2="1" y2="1">
      <stop offset="0%" stop-color="#ffffff"/>
      <stop offset="100%" stop-color="#fff7ed"/>
    </linearGradient>
    <filter id="shadow" x="-20%" y="-20%" width="140%" height="140%">
      <feDropShadow dx="0" dy="16" stdDeviation="18" flood-color="#0f172a" flood-opacity="0.16"/>
    </filter>
  </defs>
  <rect width="700" height="700" fill="url(#bg)"/>
  <rect x="58" y="58" width="584" height="584" rx="42" fill="#ffffff" filter="url(#shadow)"/>
  <rect x="58" y="58" width="584" height="584" rx="42" fill="none" stroke="#ead7b7" stroke-width="4"/>
  <circle cx="350" cy="235" r="150" fill="#f8fafc"/>
  <g transform="translate(50, 15)">
    
        <path d="M145 170h150l35 38h125v132H145z" fill="#7c2d12"/>
        <path d="M145 208h310v132H145z" fill="#f97316" opacity="0.9"/>
        <rect x="178" y="236" width="244" height="16" rx="8" fill="#fff" opacity="0.75"/>
        <rect x="178" y="270" width="190" height="14" rx="7" fill="#fff" opacity="0.55"/>
        
  </g>
  <text x="350" y="82" text-anchor="middle" font-family="Arial, Helvetica, sans-serif" font-size="16" font-weight="800" fill="#f97316" letter-spacing="2">S.M. TRADE INTERNATIONAL</text>
  <line x1="150" y1="385" x2="550" y2="385" stroke="#ead7b7" stroke-width="4"/>
  <text x="300" y="420" text-anchor="middle" font-family="Arial, Helvetica, sans-serif" font-size="28" font-weight="800" fill="#111827">File Folder – Premium</text><text x="300" y="454" text-anchor="middle" font-family="Arial, Helvetica, sans-serif" font-size="28" font-weight="800" fill="#111827">Leather Document Case</text>
  <text x="350" y="610" text-anchor="middle" font-family="Arial, Helvetica, sans-serif" font-size="17" fill="#475569">Premium customized corporate product</text>
  <text x="300" y="542" text-anchor="middle" font-family="Arial, Helvetica, sans-serif" font-size="14" font-weight="700" fill="#f97316">PRD-LQTQ4-0C2</text>
</svg>